Vanayuddham (2013)


 
http://www.shotpix.com/images/46729125047421503250.jpg





[B]INFO[/B]

[CODE]General

Format : AVI
Format/Info : Audio Video Interleave
File size : 694 MiB
Duration : 1h 54mn
Overall bit rate : 844 Kbps

Video
ID : 0
Format : MPEG-4 Visual
Format profile : Advanced Simple@L5
Format settings, BVOP : 1
Format settings, QPel : No
Format settings, GMC : No warppoints
Format settings, Matrix : Default (H.263)
Muxing mode : Packed bitstream
Codec ID : XVID
Codec ID/Hint : XviD
Duration : 1h 54mn
Bit rate : 710 Kbps
Width : 608 pixels
Height : 256 pixels
Display aspect ratio : 2.40:1
Frame rate : 23.976 fps
Color space : YUV
Chroma subsampling : 4:2:0
Bit depth : 8 bits
Scan type : Progressive
Compression mode : Lossy
Bits/(Pixel*Frame) : 0.190
Stream size : 584 MiB (84%)
Writing library : XviD 1.2.1 (UTC 2008-12-04)

Audio
ID : 1
Format : MPEG Audio
Format version : Version 1
Format profile : Layer 3
Mode : Joint stereo
Mode extension : MS Stereo
Codec ID : 55
Codec ID/Hint : MP3
Duration : 1h 54mn
Bit rate mode : Constant
Bit rate : 128 Kbps
Channel(s) : 2 channels
Sampling rate : 48.0 KHz
Compression mode : Lossy
Stream size : 105 MiB (15%)
Alignment : Aligned on interleaves
Interleave, duration : 167 ms (4.00 video frames)
Interleave, preload duration : 216 ms
Title : VTS_03_1 T80 3_2ch 448Kbps DELAY 0ms_new
Writing library : LAME3.99r
Encoding settings : -m j -V 4 -q 2 -lowpass 17 -b 128[/CODE]







[B]SCREEN SHOTS[/B]
 
http://www.shotpix.com/images/47177412156718744442.png
 
http://www.shotpix.com/images/99103981813800868128.png
 
http://www.shotpix.com/images/61474296127146543504.png
 
http://www.shotpix.com/images/72885438138613848309.png
 
http://www.shotpix.com/images/97018259727480031760.png
 
http://www.shotpix.com/images/64053658922643877597.png